PathFileType	4	(X/Y/Z)	55_2_114_p1_0-165.trc
DataRate	CameraRate	NumFrames	NumMarkers	Units	OrigDataRate	OrigDataStartFrame	OrigNumFrames
48.0	48.0	5	27	m	48.0	62	166
Frame#	Time	RHip			RKnee			RAnkle			RBigToe			RSmallToe			RHeel			LHip			LKnee			LAnkle			LBigToe			LSmallToe			LHeel			Neck			Head			Nose			RShoulder			RElbow			RWrist			RThumb			RIndex			RPinky			LShoulder			LElbow			LWrist			LThumb			LIndex			LPinky			
		X1	Y1	Z1	X2	Y2	Z2	X3	Y3	Z3	X4	Y4	Z4	X5	Y5	Z5	X6	Y6	Z6	X7	Y7	Z7	X8	Y8	Z8	X9	Y9	Z9	X10	Y10	Z10	X11	Y11	Z11	X12	Y12	Z12	X13	Y13	Z13	X14	Y14	Z14	X15	Y15	Z15	X16	Y16	Z16	X17	Y17	Z17	X18	Y18	Z18	X19	Y19	Z19	X20	Y20	Z20	X21	Y21	Z21	X22	Y22	Z22	X23	Y23	Z23	X24	Y24	Z24	X25	Y25	Z25	X26	Y26	Z26	X27	Y27	Z27	
62	1.2916666666666667	0.34171496224922193	0.47694086871176683	0.7158831853347799	0.3531797316278302	0.5719715035148006	1.1971612262340194	0.3587183190894093	0.6008595010418405	1.636054281511855	0.2896598078392361	0.4411101815355905	1.6548553259349341	0.36164834251082617	0.4457498883160073	1.651335133335112	0.3475428650111536	0.7044612252028664	1.7255317465549247	0.1458489987449374	0.5151333095986368	0.7192351256560807	0.11449463181095741	0.5906414014725428	1.1949045414173938	0.12630270047473954	0.6068155177665817	1.631649501828946	0.136803694482853	0.4322212334750368	1.6566522112060293	0.0801714391295181	0.480182596766368	1.6697864451092834	0.1463238695737586	0.6953166020795042	1.726894108365842	0.2370556038073501	0.5440343468026231	0.20259595717019566	0.22675356239985905	0.5308822661704016	-0.04091796741954831	0.21824573198354066	0.44529373213241985	0.07725428323176939	0.38518243479273145	0.5353420365611524	0.29091828373041645	0.44693628274279407	0.5171283629675706	0.5694893626753345	0.4183733726333581	0.39234495072622855	0.7924020732890174	0.3363929860267977	0.3948763068590902	0.9214087043340066	0.35416202015691006	0.39996013942997494	0.948148389990875	0.4056411973785587	0.439361521084664	0.9472134017957022	0.08397090066220958	0.584749332945635	0.28019809063766404	-0.009412744009079165	0.6083296794411176	0.5158316200077655	0.010598556451736577	0.39206856381218835	0.4878292244458258	0.07790219079797522	0.24504501049628108	0.46405842993041224	0.06001993074103162	0.20737614907127108	0.4611233534080311	0.02370582207896146	0.2870612859508102	0.535344056092677
63	1.3125	0.341797766447285	0.4765024993480688	0.7160001715050494	0.35221080400128785	0.5709580450991637	1.1924614730141065	0.35869956173751555	0.6008261991311203	1.6359478213109135	0.28920343514372	0.4397288943343799	1.6534013596842354	0.3578784764784817	0.43625599576519536	1.6440103079893957	0.34280346945409096	0.6925478365610933	1.7178292465002187	0.14214002256777064	0.5133997950488456	0.719081117094468	0.11448741027573696	0.5906488621189177	1.1948806939359087	0.12634171357332674	0.606790754220111	1.6316439385434842	0.13785131824887348	0.4319578146029551	1.652264406371813	0.0812235461992361	0.4798716854995692	1.6654912687426588	0.146402144233373	0.6952769301070065	1.7267699269367598	0.23708532147836547	0.5441470523900926	0.20256134640752937	0.22680292544401118	0.5308989094689288	-0.04091425134205503	0.2181539286759709	0.4456442572360209	0.07731984576513752	0.38509153878467056	0.5355465197225291	0.2909382151067827	0.44740470520348463	0.5169638569809469	0.5659090830924256	0.41884992748917826	0.39247649067125634	0.788555594517336	0.33642873342379587	0.39481187173445387	0.921355886734145	0.35418703236685095	0.3996579876427929	0.9480641341007614	0.4086857592774504	0.42522650442398396	0.9408642121429086	0.08806772629315586	0.5874632693423153	0.2805799330010353	-0.006294624891858793	0.6128074801770874	0.5024626052088009	0.01412033666958728	0.3828444629809709	0.4666332823109945	0.08490371106402572	0.23664113772412584	0.4513985600725039	0.07025144382771144	0.2214965872943991	0.45177306777382925	0.02705615970174333	0.28310339255972583	0.5216600108197337
64	1.3333333333333333	0.33962342634536064	0.4911135101624739	0.7245555975030779	0.35308462080361835	0.5720445153603289	1.1971507706906095	0.3586376541126438	0.6004632290342389	1.635761969187907	0.2890583552283972	0.43738420905329256	1.6454800473742788	0.3578821176577569	0.4366004693520871	1.6432538421166525	0.3431648385576892	0.6932491803382782	1.7184226088596364	0.1385548977791732	0.5099964025850451	0.7251691719832927	0.11444672874957823	0.5906085603064426	1.1948002618391378	0.12630824070643093	0.6067610396753707	1.631696985924141	0.13763228596354857	0.43198526133038434	1.6521468542242146	0.0812124855270891	0.47991623066905387	1.6654764747377078	0.14625089556756252	0.6950330148449037	1.7268402103130516	0.2341545052189406	0.5567962538366173	0.2045213678349414	0.2268236133483613	0.5313426046781152	-0.040956918356017884	0.21542640761153925	0.45848711140362075	0.07880001328220419	0.3784365654283866	0.5481426946465394	0.29350836699084026	0.44795775203302046	0.5178986235970868	0.5698128950471567	0.4188323719424491	0.3923503266011735	0.7887072012144211	0.3373222120871432	0.3933485046261465	0.9210630339372525	0.3543201405449977	0.3994178080212108	0.9478872473014159	0.41249707073407665	0.42586553667315813	0.9397818500353571	0.08816696134194646	0.5880714060394548	0.2770552405215173	-0.0011997477021449383	0.618757244397813	0.5016259846073223	0.006806486326129277	0.4073400788370983	0.43168933168685053	0.08559270614368357	0.26491264643072604	0.39914379116021237	0.07587972051668601	0.24589816558038255	0.38967382190299193	0.014288664630774928	0.24095076675264435	0.4557662595266857
65	1.3541666666666667	0.33994470790768916	0.49257903928976454	0.7199095119022701	0.3521295722565308	0.571261568280128	1.192264743479662	0.3598978770962745	0.6018475224548245	1.6417242884725314	0.2909077270021805	0.4417781709090397	1.6508077408576678	0.361781862784474	0.44609186699100906	1.6518805631531606	0.34248512315462004	0.6915148171277153	1.7172391783997352	0.13490116514692532	0.5247337599447917	0.7225076232541637	0.11441894477848996	0.5905576199637794	1.1947339013121991	0.12632704436996028	0.6067198554839301	1.6317066782036787	0.13692810541489883	0.43282267115697926	1.6571157964480772	0.0801748239434801	0.4803892012731391	1.6699622160366157	0.15140263630672954	0.6790370954801097	1.7209194031888333	0.23406068577413364	0.5574959254240418	0.20127919774378572	0.22679682438122392	0.5315248391665569	-0.040966887021934795	0.21893446934994437	0.4687978494751267	0.08005134913528814	0.37843236880709624	0.5481185818665303	0.29351625708836104	0.4472753671687023	0.5181197546828176	0.5660414885986458	0.4184117945739017	0.39221332551523913	0.7923675471084287	0.33733218775887924	0.393358688339416	0.9210870495078922	0.3543157016868825	0.39961233130264356	0.9479395724282612	0.4152534282424563	0.4123904155829371	0.9337425159963881	0.08809328183671565	0.5880085551797793	0.27707814289894944	-0.005153061262264245	0.6029409150146156	0.520126697840485	0.0075665246904725895	0.4091375842549461	0.4276679819955607	0.08783617391516808	0.2750600465509213	0.3830777129182696	0.07680458777511184	0.2516224666582867	0.36086730904397635	0.011227811943410299	0.23461406931663611	0.4036625980382445
66	1.375	0.33591796534930535	0.48217241552255197	0.711803864767196	0.35211286070611353	0.5712062760134454	1.192081424130515	0.3586409633813913	0.6006054992251328	1.6358541565112035	0.2892295341526545	0.4400804604386441	1.6536325529157967	0.3615697818187197	0.4459131265190402	1.6507730428405194	0.34295199254576836	0.6925735063160939	1.7179161606829947	0.13498761572414572	0.5144699522134579	0.7147745964529453	0.11445799281088803	0.5904151420637618	1.1946575784108888	0.1252749518566241	0.6067496541571952	1.6368930603299774	0.13683115803593332	0.4325542522662463	1.656910641788113	0.08021719183582716	0.4804173750055043	1.6699470344303364	0.15136913706363253	0.6788122848552327	1.7209060271497896	0.23397993737870829	0.5577197882218863	0.20124599716592265	0.22706386307094886	0.5321449860027213	-0.037919151944841675	0.2188399983388489	0.4692436871756263	0.08001936449268776	0.3784844218311213	0.5488635241079334	0.28994991710929074	0.44716722881875076	0.5195261666055369	0.5661806410554011	0.4184453505600724	0.39206188001881875	0.7923138802220198	0.33691631763452096	0.3931153430871909	0.9246605139726888	0.3543625185659912	0.3995786431886182	0.9480674577201458	0.4180507546045043	0.39879826129109214	0.9277371708221933	0.08350685654536903	0.5845576779042616	0.28381429838401007	-0.014849734481412564	0.5915188094447023	0.5343308282871599	0.00780598713306547	0.4101223639208822	0.4144348190838739	0.07763262677137521	0.2820094861175858	0.3361928124185834	0.0662342783079999	0.24356689050596625	0.32284382904759623	0.006828790002475118	0.2397273616574595	0.3689338511696181
